<svg xmlns="http://www.w3.org/2000/svg" width="100" height="100" viewBox="0 0 12500 12500">
  <defs>
    <style>
      .cls-1 {
        fill: #bf3b5f;
        fill-rule: evenodd;
      }
    </style>
  </defs>
  <path id="Forma_330_1" data-name="Forma 330 1" class="cls-1" d="M7852.64,967.427H10159.3V3963.38c0,53.9-18.7,186.39,9.5,219.1q817.35,585.8,1634.7,1171.7c183.7,143.11,182.1,485.51,0,628.73-93.3,73.37-269.3,122.2-414.6,61.91-129.2-53.59-237.9-164.71-347.9-242.91q-347.85-245.265-695.8-490.59Q8331.8,3868.26,6318.04,2424.92q-1074.6,769.14-2149.4,1538.46c-40.97-292.53-152.68-571.49-266.88-800.19Q5112.155,2296.4,6322.8,1429.44q764.85,547.695,1529.84,1095.5V967.427ZM10531,11531.8q-3292.815-2.25-6586.35-4.7c-0.5-264.7,162.51-464.8,424.16-466.8v-4.8c-61.42-114-367.22-300-538.54-171.4-113.31,85-173.05,446.5-176.34,647.7H2619.75v-14.2c67.73-210.2,213.53-192.6,343.14-319.2,58.14-947.3-194.97-1638.01-548.08-2205.25-296.81-476.81-632.58-906.2-776.83-1538.47-121.02-530.45,53.17-1255.44,204.93-1648.01,52.73-136.38,225.25-487.8,204.93-643.01q-123.9-42.855-247.82-85.73H1466.41c-243.47-.66-421.69-67.97-557.6-176.23-61.366-48.89-227.091-218.05-204.931-338.18,31-168.03,126.37-289.94,176.335-447.73,110.979-350.45,163.887-710.49,366.967-962.13,45.51-56.38,127.23-110.27,190.64-147.65,72.75-42.9,198.46-38.64,233.52-119.08,50.82-116.57,46.33-353.27,0-471.54-27.23-69.51-73.99-117.95-81.02-209.57,81.51-174.47,504.94-.82,633.86,52.39,542.33,223.85,986.75,510.24,1272.48,990.71,179.91,302.53,261.24,666.29,343.14,1071.69,122.18,604.74,111.2,1249.12,419.39,1657.53,205.5,272.32,576.65,373.42,919.81,509.65,203.38,80.73,401.36,173.43,581.43,281.02,683.24,408.21,1173.26,893.52,1424.99,1738.51,68.04,228.37,136.54,652.59,85.78,962.13-51.33,313.08-32.18,678.85-61.95,1000.25q4.77,2.4,9.53,4.8c119.13-75.9,336.08-282.4,390.8-414.4q11.91-195.315,23.83-390.6c59.69-371.45,43.6-810.39-38.13-1128.84-51.3-199.88-88.43-383.79-162.04-557.28-339.17-799.37-962.25-1256.23-1682.34-1676.59-322.09-188.02-754.23-252.93-1058.02-462.01-240.83-165.76-289.05-511.25-357.43-852.59-9.73-48.57-61.22-316.14-38.13-342.94q1003.11-654.84,2006.42-1309.83Q8417.18,4715.805,10531,6092.46V11531.8Z"/>
</svg>
